<?xml version="1.0" encoding="UTF-8"?>
<svg id="uuid-8962ef8f-691c-41f6-884b-d0659fc04d32" data-name="uuid-8f33571d-8875-4973-abc8-478f0889a50c" xmlns="http://www.w3.org/2000/svg" viewBox="0 0 32 32">
  <rect width="32" height="32" fill="none"/>
  <path d="M8,20.7663l3.1435-8.7247h1.6419l3.1435,8.7247h-1.7138l-.8581-2.337h-3.2849l-.8569,2.337h-1.2152ZM10.4292,17.3388h2.5l-1.214-3.5054-1.2859,3.5054h-.0001ZM16.3579,20.6884v-1.4801c1.1421.3895,2.0709.6232,2.8571.6232.6424,0,1.0714-.1558,1.3566-.3116.3571-.2337.4998-.4674.4998-.8569,0-.3116-.0719-.5453-.2852-.7011-.2145-.2337-.5717-.4674-1.1433-.7011l-.7143-.3116c-.9288-.4674-1.5712-.9348-2.0002-1.3243-.3571-.3895-.5705-.8569-.5705-1.4022,0-.7011.2852-1.3243.9276-1.7138.6436-.4674,1.5004-.7011,2.5719-.7011.8569,0,1.7857.0779,2.7852.3116v1.4022c-1.0714-.3116-1.9283-.4674-2.5707-.4674-.4998,0-.8569.0779-1.1433.2337-.2852.2337-.4278.4674-.4278.7011s.0719.4674.2852.6232c.2145.1558.5717.3895,1.1433.7011l.7143.3116c.9995.4674,1.7138.9348,2.0709,1.3243s.5717.8569.5717,1.4801c0,.779-.3571,1.4801-1.0714,1.8696-.6436.4674-1.6431.7011-2.929.7011-.785,0-1.7857-.0779-2.9278-.3116h0ZM23.9297,20.7663v-8.6468h2.2135l1.9283,6.154,2.0002-6.154h1.9283v8.6468h-1.5712v-6.6214l-1.9295,5.9982h-1.3566l-1.9283-6.0761v6.6993h-1.2859.0012Z" fill="#cc3e44"/>
</svg>