<?xml version="1.0" encoding="UTF-8"?>
<svg id="Icon" xmlns="http://www.w3.org/2000/svg" width="32" height="32" version="1.1" viewBox="0 0 32 32">
  <!-- Generator: Adobe Illustrator 29.2.1, SVG Export Plug-In . SVG Version: 2.1.0 Build 116)  -->
  <defs>
    <style>
      .st0 {
        fill: none;
      }

      .st1 {
        fill: #24a148;
      }
    </style>
  </defs>
  <rect id="_x3C_Transparent_Rectangle_x3E_" class="st0" x="0" y="0" width="32" height="32"/>
  <path class="st1" d="M6.8413,20.0181c-1.4248,0-2.3691-.9609-2.3691-2.7217v-1.793c0-1.7607.9443-2.7207,2.3691-2.7207,1.2002,0,1.793.624,2.0801,1.5527l2.0977-1.0889c-.8164-1.793-2.1289-2.625-4.1777-2.625-3.0098,0-4.9463,2.0811-4.9463,5.8584s1.9365,5.6982,4.9463,5.6982c2.0488,0,3.377-.9766,4.209-2.6729l-1.9844-1.1523c-.3359.9121-1.0244,1.665-2.2246,1.665ZM19.0337,16.1763v-.0967c1.1357-.0479,2.0811-.6885,2.0811-2.4004,0-1.7285-1.1045-2.8652-2.9453-2.8652h-5.4268v11.1729h5.9229c1.6484,0,2.8809-1.4248,2.8809-3.1855,0-1.9209-1.457-2.625-2.5127-2.625ZM15.1763,12.8629h2.417c.6396,0,1.0244.3838,1.0244,1.0244v.4805c0,.6396-.3848,1.0234-1.0244,1.0234h-2.417v-2.5283ZM19.0171,18.9293c0,.6396-.3994,1.0088-1.04,1.0088h-2.8008v-2.5615h2.8008c.6406,0,1.04.3682,1.04,1.0088v.5439ZM25.8481,19.8257v-9.0117h-2.4336v11.1729h6.6904v-2.1611h-4.2568Z"/>
</svg>