<?xml version="1.0" encoding="UTF-8"?>
<svg id="Icon" xmlns="http://www.w3.org/2000/svg" width="32" height="32" version="1.1" viewBox="0 0 32 32">
  <!-- Generator: Adobe Illustrator 29.2.1, SVG Export Plug-In . SVG Version: 2.1.0 Build 116)  -->
  <defs>
    <style>
      .st0 {
        fill: none;
      }

      .st1 {
        fill: #1192e8;
      }
    </style>
  </defs>
  <rect id="_x3C_Transparent_rectangle_x3E_" class="st0" x=".0658" width="32" height="32"/>
  <path class="st1" d="M4.1344,12.7897h3.3926v5.874c0,.9609-.5762,1.3926-1.2803,1.3926-.752,0-1.2158-.5117-1.3926-1.4561l-2.2725.4482c.3203,1.873,1.4883,3.1367,3.6973,3.1367,2.3047,0,3.6816-1.3604,3.6816-3.4092v-7.9395h-5.8262v1.9531ZM16.8718,20.0407c-1.4248,0-2.3691-.9609-2.3691-2.7207v-1.793c0-1.7607.9443-2.7217,2.3691-2.7217,1.2002,0,1.792.625,2.0811,1.5527l2.0967-1.0879c-.8164-1.793-2.1289-2.625-4.1777-2.625-3.0098,0-4.9463,2.0811-4.9463,5.8584s1.9365,5.6982,4.9463,5.6982c2.0488,0,3.377-.9766,4.21-2.6729l-1.9854-1.1533c-.3359.9131-1.0244,1.665-2.2246,1.665ZM25.2067,19.8483v-9.0117h-2.4336v11.1729h6.6914v-2.1611h-4.2578Z"/>
</svg>