<?xml version="1.0" encoding="UTF-8"?>
<svg id="Icon" xmlns="http://www.w3.org/2000/svg" width="32" height="32" version="1.1" viewBox="0 0 32 32">
  <!-- Generator: Adobe Illustrator 29.2.1, SVG Export Plug-In . SVG Version: 2.1.0 Build 116)  -->
  <defs>
    <style>
      .st0 {
        fill: none;
      }

      .st1 {
        fill: #a56eff;
      }
    </style>
  </defs>
  <rect id="_x3C_Transparent_rectangle_x3E_" class="st0" x=".0658" width="32" height="32"/>
  <path class="st1" d="M5.2832,9.8243H0v11.1729h2.4336v-4.0342h2.8496c2.0801,0,3.3926-1.4561,3.3926-3.5693s-1.3125-3.5693-3.3926-3.5693ZM6.1631,13.7452c0,.7207-.4482,1.1055-1.1689,1.1055h-2.5605v-2.9141h2.5605c.7207,0,1.1689.3848,1.1689,1.1045v.7041ZM12.9297,9.8243h-2.4336v11.1729h6.6914v-2.1611h-4.2578v-9.0117ZM18.2632,23.4132h1.9521l4.7705-14.2617h-1.9531l-4.7695,14.2617ZM32,11.7609v-1.9365h-5.3135v1.9365h1.4404v7.2988h-1.4404v1.9375h5.3135v-1.9375h-1.4404v-7.2988h1.4404Z"/>
</svg>