<?xml version="1.0" encoding="UTF-8"?>
<svg id="Icon" xmlns="http://www.w3.org/2000/svg" width="32" height="32" version="1.1" viewBox="0 0 32 32">
  <!-- Generator: Adobe Illustrator 29.2.1, SVG Export Plug-In . SVG Version: 2.1.0 Build 116)  -->
  <defs>
    <style>
      .st0 {
        fill: none;
      }

      .st1 {
        fill: #009d9a;
      }
    </style>
  </defs>
  <rect id="_x3C_Transparent_rectangle_x3E_" class="st0" x=".0658" width="32" height="32"/>
  <path class="st1" d="M7.4102,13.7793c0-1.9805-1.0049-3.2549-2.8799-3.2549H0v10.4697h2.1445v-3.96h1.4258l1.6191,3.96h2.3252l-1.8291-4.1553c1.124-.4199,1.7246-1.5303,1.7246-3.0596ZM5.1895,14.2744c0,.7197-.3594.9746-.9297.9746h-2.1152v-2.8496h2.1152c.5703,0,.9297.2549.9297.9746v.9004ZM8.1895,20.9941h6.4805v-1.875h-4.335v-2.4902h3.6748v-1.8594h-3.6748v-2.3701h4.335v-1.875h-6.4805v10.4697ZM28.9854,15.624l2.835-5.0996h-2.2949l-1.6943,3.4346h-.2402l-1.6797-3.4346h-4.5068l-1.6943,3.4346h-.2402l-1.6797-3.4346h-2.4756l2.79,5.0996-2.9541,5.3701h2.2949l1.8438-3.75h.2109l1.9043,3.75h4.1611l1.8447-3.75h.21l1.9053,3.75h2.4746l-3.0146-5.3701ZM23.5717,20.4468l-2.7074-4.8228,2.7021-4.8606,2.6592,4.8606-2.6539,4.8228Z"/>
</svg>