<?xml version="1.0" encoding="UTF-8"?>
<svg id="Icon" xmlns="http://www.w3.org/2000/svg" width="32" height="32" version="1.1" viewBox="0 0 32 32">
  <!-- Generator: Adobe Illustrator 29.2.1, SVG Export Plug-In . SVG Version: 2.1.0 Build 116)  -->
  <defs>
    <style>
      .st0 {
        fill: none;
      }

      .st1 {
        fill: #6f6f6f;
      }
    </style>
  </defs>
  <rect id="_x3C_Transparent_rectangle_x3E_" class="st0" x=".0658" width="32" height="32"/>
  <path class="st1" d="M16,7c-4.9706,0-9,4.0294-9,9s4.0294,9,9,9,9-4.0294,9-9-4.0294-9-9-9ZM20.4462,11.7009c.7174-.4142,1.6348-.1684,2.049.549.4142.7175.1684,1.6348-.549,2.049-.7175.4142-1.6348.1685-2.0491-.549-.4142-.7174-.1684-1.6348.5491-2.049ZM11.5538,20.299c-.7174.4142-1.6348.1685-2.049-.549-.4142-.7174-.1684-1.6348.549-2.049.7175-.4142,1.6348-.1684,2.0491.549.4142.7175.1684,1.6348-.5491,2.049ZM12.1029,13.75c-.4142.7175-1.3316.9633-2.0491.549-.7174-.4142-.9633-1.3315-.549-2.049.4142-.7174,1.3316-.9633,2.049-.549.7175.4142.9633,1.3316.5491,2.049ZM16,23.5c-.8284,0-1.5-.6716-1.5-1.5s.6716-1.5,1.5-1.5,1.5.6716,1.5,1.5-.6716,1.5-1.5,1.5ZM16,11.5c-.8284,0-1.5-.6716-1.5-1.5s.6716-1.5,1.5-1.5,1.5.6716,1.5,1.5-.6716,1.5-1.5,1.5ZM22.4952,19.75c-.4142.7175-1.3316.9633-2.049.549-.7175-.4142-.9633-1.3315-.5491-2.049.4142-.7174,1.3316-.9633,2.0491-.549.7174.4142.9633,1.3316.549,2.049Z"/>
</svg>