<?xml version="1.0" encoding="UTF-8"?>
<svg id="Layer_2" data-name="Layer 2" xmlns="http://www.w3.org/2000/svg" viewBox="0 0 30 30">
  <g id="icon">
    <path d="M22,0l-6,6,1.41,1.4,3.59-3.58v16.18h-12v-11h-2v11c0,1.1.9,2,2,2h12c1.1,0,2-.9,2-2V3.82l3.59,3.59,1.41-1.4L22,0Z" style="fill: #fff;"/>
    <path d="M17.5,18h-5c-.83,0-1.5-.67-1.5-1.5v-5c0-.83.67-1.5,1.5-1.5h5c.83,0,1.5.67,1.5,1.5v5c0,.83-.67,1.5-1.5,1.5ZM13,16h4v-4h-4v4Z" style="fill: #fff;"/>
    <path d="M15,30v-2c7.17,0,13-5.83,13-13,0-1.26-.18-2.51-.54-3.71l1.92-.57c.41,1.39.62,2.83.62,4.29,0,8.27-6.73,15-15,15Z" style="fill: #fff;"/>
    <path d="M.62,19.29c-.41-1.39-.62-2.83-.62-4.29C0,6.73,6.73,0,15,0v2C7.83,2,2,7.83,2,15c0,1.26.18,2.51.54,3.71,0,0-1.92.57-1.92.57Z" style="fill: #fff;"/>
  </g>
</svg>