<svg version="1.1" xmlns="http://www.w3.org/2000/svg" xmlns:xlink="http://www.w3.org/1999/xlink" width="32" height="32" viewBox="0,0,256,256"><g fill="none" fill-rule="nonzero" stroke="none" stroke-width="1" stroke-linecap="butt" stroke-linejoin="miter" stroke-miterlimit="10" stroke-dasharray="" stroke-dashoffset="0" font-family="none" font-weight="none" font-size="none" text-anchor="none" style="mix-blend-mode: normal"><g transform="scale(8,8)"><path d="M6,20h8v-2h-8v-6h18v-8c0,-1.1045 -0.8955,-2 -2,-2h-16c-1.1045,0 -2,0.8955 -2,2v22c0,1.1047 0.8955,2 2,2h8v-2h-8zM6,4h16v6h-16zM8,22.9999c0,-0.5523 0.4477,-1 1,-1c0.5523,0 1,0.4477 1,1c0,0.5523 -0.4477,1 -1,1c-0.5523,0 -1,-0.4477 -1,-1zM8,15c0,-0.5523 0.4477,-1 1,-1c0.5523,0 1,0.4477 1,1c0,0.5523 -0.4477,1 -1,1c-0.5523,0 -1,-0.4477 -1,-1zM8,7c0,-0.5523 0.4477,-1 1,-1c0.5523,0 1,0.4477 1,1c0,0.5523 -0.4477,1 -1,1c-0.5523,0 -1,-0.4477 -1,-1zM30,17h-3.4131c2.0405,1.2246 3.4131,3.4521 3.4131,6c0,3.8599 -3.1401,7 -7,7c-3.8599,0 -7,-3.1401 -7,-7c0,-1.8696 0.728,-3.6274 2.0503,-4.9497l1.4141,1.4141c-0.9443,0.9443 -1.4644,2.2002 -1.4644,3.5356c0,2.7568 2.2432,5 5,5c2.7568,0 5,-2.2432 5,-5c0,-2.0449 -1.2373,-3.8025 -3,-4.5762v3.5762h-2v-7h7zM8,23c0,-0.5523 0.4477,-1 1,-1c0.5523,0 1,0.4477 1,1c0,0.5523 -0.4477,1 -1,1c-0.5523,0 -1,-0.4477 -1,-1zM8,15c0,-0.5523 0.4477,-1 1,-1c0.5523,0 1,0.4477 1,1c0,0.5523 -0.4477,1 -1,1c-0.5523,0 -1,-0.4477 -1,-1zM8,7c0,-0.5523 0.4477,-1 1,-1c0.5523,0 1,0.4477 1,1c0,0.5523 -0.4477,1 -1,1c-0.5523,0 -1,-0.4477 -1,-1zM30,17h-3.4131c2.0405,1.2246 3.4131,3.4521 3.4131,6c0,3.8599 -3.1401,7 -7,7c-3.8599,0 -7,-3.1401 -7,-7c0,-1.8696 0.728,-3.6274 2.0503,-4.9497l1.4141,1.4141c-0.9443,0.9443 -1.4644,2.2002 -1.4644,3.5356c0,2.7568 2.2432,5 5,5c2.7568,0 5,-2.2432 5,-5c0,-2.0449 -1.2373,-3.8025 -3,-4.5762v3.5762h-2v-7h7z" fill="#ff7800"></path><rect x="0" y="0" width="32" height="32" id="_x3C_Transparent_Rectangle_x3E_" fill="none"></rect></g></g></svg>